<svg xmlns="http://www.w3.org/2000/svg" xmlns:xlink="http://www.w3.org/1999/xlink" xmlns:lucid="lucid" width="1070" height="1349"><g transform="translate(-160 -50.99999999994924)" lucid:page-tab-id="0_0"><path d="M0 0h1360v1760H0z" fill="#fff"/><path d="M308 230c17.67 0 32 13.43 32 30s-14.33 30-32 30h-96c-17.67 0-32-13.43-32-30s14.33-30 32-30z" stroke="#000" stroke-opacity="0" stroke-width="2" fill="#d2d3d5"/><use xlink:href="#a" transform="matrix(1,0,0,1,185,235) translate(56.025 28.6)"/><path d="M520 208c0-4.42 3.58-8 8-8h248.88c4.4 0 8 3.58 8 8v104c0 4.42-3.6 8-8 8H528c-4.42 0-8-3.58-8-8z" stroke="#000" stroke-opacity="0" stroke-width="2" fill="#489bfc"/><use xlink:href="#b" transform="matrix(1,0,0,1,525,205) translate(52.125 26.69999999999999)"/><use xlink:href="#c" transform="matrix(1,0,0,1,525,205) translate(112.97500000000001 26.69999999999999)"/><use xlink:href="#d" transform="matrix(1,0,0,1,525,205) translate(55.125 48.29999999999999)"/><use xlink:href="#e" transform="matrix(1,0,0,1,525,205) translate(115.92500000000001 48.29999999999999)"/><use xlink:href="#f" transform="matrix(1,0,0,1,525,205) translate(23.30000000000001 69.89999999999999)"/><use xlink:href="#g" transform="matrix(1,0,0,1,525,205) translate(56.650000000000006 91.5)"/><use xlink:href="#h" transform="matrix(1,0,0,1,525,205) translate(168.4 91.5)"/><path d="M880 1208c0-4.42 3.58-8 8-8h144c4.42 0 8 3.58 8 8v44c0 4.42-3.58 8-8 8H888c-4.42 0-8-3.58-8-8z" stroke="#000" stroke-opacity="0" stroke-width="2" fill="#489bfc"/><use xlink:href="#i" transform="matrix(1,0,0,1,885,1205) translate(21.074999999999996 28.6)"/><use xlink:href="#j" transform="matrix(1,0,0,1,885,1205) translate(71.025 28.6)"/><path d="M708 1320c17.67 0 32 13.43 32 30s-14.33 30-32 30h-96c-17.67 0-32-13.43-32-30s14.33-30 32-30z" stroke="#000" stroke-opacity="0" stroke-width="2" fill="#d2d3d5"/><use xlink:href="#k" transform="matrix(1,0,0,1,585,1325) translate(56.5 28.6)"/><path d="M340.5 260h163.12" stroke="#333" fill="none"/><path d="M340.5 260.5h-.54l.04-.5v-.24l-.02-.26h.53z" fill="#333"/><path d="M518.38 260l-14.26 4.64v-9.28z" stroke="#333" fill="#333"/><path d="M675.74 1170.04h-185.7l-3.04.5-2.6 1.34-2.06 2.06-1.35 2.6-.5 3.04v4.04h-1v-4.12l.53-3.28 1.5-2.88 2.27-2.28 2.88-1.5 3.28-.52h185.78zm144.76-10.46l-.53 3.28-1.5 2.9-2.27 2.26-2.88 1.5-3.28.52h-111v-1h110.92l3.04-.5 2.6-1.33 2.06-2.05 1.35-2.6.5-3.05v-19.9h1zM820.5 1139.1v.5h-1v-.52zM480 1198.38l-4.64-14.26h9.28z" fill="#333"/><path d="M480 1200l-5.32-16.38h10.64zm-3.95-15.38l3.95 12.14 3.95-12.14z" fill="#333"/><use xlink:href="#l" transform="matrix(1,0,0,1,675.7419905607977,1160.2098602509013) translate(0 12.444444444444446)"/><path d="M960.5 1183.62h-1v-65.22h1zm-7.18-103.6l2.88 1.5 2.28 2.28 1.5 2.88.52 3.28v9.78h-1v-9.7l-.5-3.04-1.34-2.6-2.05-2.06-2.6-1.35-3.04-.5h-51.32v-1h51.4z" fill="#333"/><path d="M898.66 1080.5h-.54l.04-1h.5zM960 1198.38l-4.64-14.26h9.28z" fill="#333"/><path d="M960 1200l-5.32-16.38h10.64zm-3.95-15.38l3.95 12.14 3.95-12.14z" fill="#333"/><use xlink:href="#m" transform="matrix(1,0,0,1,944.4444444444445,1099.7377960366168) translate(0 12.444444444444446)"/><path d="M879.5 1230H670c-5.52 0-10 4.48-10 10v63.62" stroke="#333" fill="none"/><path d="M880 1230.5h-.5v-1h.5z" fill="#333"/><path d="M660 1318.38l-4.64-14.26h9.28z" stroke="#333" fill="#333"/><path d="M813.6 1024.8c3.53-2.65 9.27-2.65 12.8 0l67.2 50.4c3.53 2.65 3.53 6.95 0 9.6l-67.2 50.4c-3.53 2.65-9.27 2.65-12.8 0l-67.2-50.4c-3.53-2.65-3.53-6.95 0-9.6z" stroke="#c54242" stroke-width="4" fill="#fff"/><use xlink:href="#n" transform="matrix(1,0,0,1,745,1025) translate(50.074999999999996 47.8)"/><use xlink:href="#o" transform="matrix(1,0,0,1,745,1025) translate(28.025 69.4)"/><use xlink:href="#p" transform="matrix(1,0,0,1,745,1025) translate(33.025 69.4)"/><path d="M252.67 79c0-4.42 3.58-8 8-8h836.75c4.42 0 8 3.58 8 8v25.16c0 4.4-3.58 8-8 8H260.67c-4.42 0-8-3.6-8-8z" stroke="#000" stroke-opacity="0" stroke-width="2" fill="#fff" fill-opacity="0"/><use xlink:href="#q" transform="matrix(1,0,0,1,256.6678598047438,74.99999999994924) translate(286.97790123456787 23.657777777777778)"/><use xlink:href="#r" transform="matrix(1,0,0,1,256.6678598047438,74.99999999994924) translate(382.83469135802466 23.657777777777778)"/><use xlink:href="#s" transform="matrix(1,0,0,1,256.6678598047438,74.99999999994924) translate(471.48037037037034 23.657777777777778)"/><path d="M462.85 110.8h437.9M462.87 110.8h-1.02M900.73 110.8h1.03" stroke="#a9afb8" stroke-width="2" fill="none"/><path d="M400 1208c0-4.42 3.58-8 8-8h144c4.42 0 8 3.58 8 8v44c0 4.42-3.58 8-8 8H408c-4.42 0-8-3.58-8-8z" stroke="#000" stroke-opacity="0" stroke-width="2" fill="#489bfc"/><use xlink:href="#t" transform="matrix(1,0,0,1,405,1205) translate(19.599999999999994 17.799999999999997)"/><use xlink:href="#u" transform="matrix(1,0,0,1,405,1205) translate(71.5 17.799999999999997)"/><use xlink:href="#v" transform="matrix(1,0,0,1,405,1205) translate(51.025 39.4)"/><path d="M480 1260.5v77.5c0 6.63 5.37 12 12 12h71.62" stroke="#333" fill="none"/><path d="M480.5 1260.5h-1v-.5h1z" fill="#333"/><path d="M578.38 1350l-14.26 4.64v-9.28z" stroke="#333" fill="#333"/><path d="M973.6 204.8c3.53-2.65 9.27-2.65 12.8 0l67.2 50.4c3.53 2.65 3.53 6.95 0 9.6l-67.2 50.4c-3.53 2.65-9.27 2.65-12.8 0l-67.2-50.4c-3.53-2.65-3.53-6.95 0-9.6z" stroke="#c54242" stroke-width="4" fill="#fff"/><use xlink:href="#w" transform="matrix(1,0,0,1,905,205) translate(15.049999999999997 58.6)"/><use xlink:href="#x" transform="matrix(1,0,0,1,905,205) translate(35.05 58.6)"/><path d="M933.1 589.33H832.04l-3 .4-2.77 1.14-2.4 1.83-1.82 2.4-1.14 2.75-.4 3.02v403.66h-1V600.8l.42-3.2 1.24-3 2-2.6 2.6-2 3-1.25 3.2-.42h101.15zm88.26 0h-65.3v-1h65.3z" fill="#333"/><path d="M1021.84 589.33h-.5v-1h.54zM820 1019.3l-4.64-14.27h9.28z" fill="#333"/><path d="M820 1020.9l-5.32-16.37h10.64zm-3.95-15.37l3.95 12.15 3.95-12.15z" fill="#333"/><use xlink:href="#y" transform="matrix(1,0,0,1,933.1076236329353,578.0332703278877) translate(0.005000000000000782 14.4)"/><path d="M898.98 420.5h-142.6v-1h142.6zm81.52-12.47l-.42 3.2-1.24 3-2 2.6-2.6 2-3 1.25-3.2.42h-46.1v-1h46.03l3-.4 2.77-1.14 2.4-1.83 1.82-2.4 1.14-2.75.4-3v-88.4h1z" fill="#333"/><path d="M980.5 319.1v.5h-1v-.52zM755.88 424.64L741.62 420l14.26-4.64z" fill="#333"/><path d="M756.38 425.32L740 420l16.38-5.32zM743.24 420l12.14 3.95v-7.9z" fill="#333"/><use xlink:href="#y" transform="matrix(1,0,0,1,898.9818064157654,409.2) translate(0.005000000000000782 14.4)"/><path d="M580 388c0-4.42 3.58-8 8-8h144c4.42 0 8 3.58 8 8v64c0 4.42-3.58 8-8 8H588c-4.42 0-8-3.58-8-8z" stroke="#000" stroke-opacity="0" stroke-width="2" fill="#489bfc"/><use xlink:href="#z" transform="matrix(1,0,0,1,585,385) translate(15.524999999999999 17)"/><use xlink:href="#A" transform="matrix(1,0,0,1,585,385) translate(54.525 17)"/><use xlink:href="#B" transform="matrix(1,0,0,1,585,385) translate(99.475 17)"/><use xlink:href="#C" transform="matrix(1,0,0,1,585,385) translate(43.074999999999996 38.6)"/><use xlink:href="#D" transform="matrix(1,0,0,1,585,385) translate(92.975 38.6)"/><use xlink:href="#E" transform="matrix(1,0,0,1,585,385) translate(16.525 60.2)"/><path d="M785.38 260h100.1" stroke="#333" fill="none"/><path d="M785.4 260.5h-.52v-1h.5z" fill="#333"/><path d="M900.24 260l-14.27 4.64v-9.28z" stroke="#333" fill="#333"/><path d="M1093.6 533.63c3.53-2.65 9.27-2.65 12.8 0l67.2 50.4c3.53 2.65 3.53 6.95 0 9.6l-67.2 50.4c-3.53 2.65-9.27 2.65-12.8 0l-67.2-50.4c-3.53-2.65-3.53-6.95 0-9.6z" stroke="#c54242" stroke-width="4" fill="#fff"/><use xlink:href="#F" transform="matrix(1,0,0,1,1025,533.8332703278877) translate(14.75 58.6)"/><use xlink:href="#G" transform="matrix(1,0,0,1,1025,533.8332703278877) translate(64.35 58.6)"/><use xlink:href="#H" transform="matrix(1,0,0,1,1025,533.8332703278877) translate(82.3 58.6)"/><path d="M1100.5 753.62h-1v-70h1zm0-91.6h-1v-13.6h1z" fill="#333"/><path d="M1100.5 647.93v.5h-1v-.52zM1100 768.38l-4.64-14.26h9.28z" fill="#333"/><path d="M1100 770l-5.32-16.38h10.64zm-3.95-15.38l3.95 12.14 3.95-12.14z" fill="#333"/><use xlink:href="#I" transform="matrix(1,0,0,1,1085.325,662.0091082852903) translate(0.005000000000000782 14.4)"/><path d="M990 778c0-4.42 3.58-8 8-8h204c4.42 0 8 3.58 8 8v44c0 4.42-3.58 8-8 8H998c-4.42 0-8-3.58-8-8z" stroke="#000" stroke-opacity="0" stroke-width="2" fill="#d85656"/><use xlink:href="#J" transform="matrix(1,0,0,1,995,775) translate(16.17500000000001 28.6)"/><path d="M1100.5 1338.03l-.42 3.2-1.24 3-2 2.6-2.6 2-3 1.25-3.2.42H756.37v-1h331.6l3-.4 2.76-1.14 2.4-1.83 1.82-2.4 1.14-2.75.4-3V830.5h1zM1100.5 830.5h-1v-.5h1zM755.88 1354.64l-14.26-4.64 14.26-4.64z" fill="#333"/><path d="M756.38 1355.32L740 1350l16.38-5.32zm-13.14-5.32l12.14 3.95v-7.9z" fill="#333"/><path d="M579.5 420H272c-6.63 0-12 5.37-12 12v92.53" stroke="#333" fill="none"/><path d="M580 420.5h-.5v-1h.5z" fill="#333"/><path d="M260 539.3l-4.64-14.27h9.28z" stroke="#333" fill="#333"/><path d="M253.6 544.8c3.53-2.65 9.27-2.65 12.8 0l67.2 50.4c3.53 2.65 3.53 6.95 0 9.6l-67.2 50.4c-3.53 2.65-9.27 2.65-12.8 0l-67.2-50.4c-3.53-2.65-3.53-6.95 0-9.6z" stroke="#c54242" stroke-width="4" fill="#fff"/><use xlink:href="#K" transform="matrix(1,0,0,1,185,545) translate(28.074999999999996 47.8)"/><use xlink:href="#L" transform="matrix(1,0,0,1,185,545) translate(20.549999999999997 69.4)"/><use xlink:href="#M" transform="matrix(1,0,0,1,185,545) translate(81.44999999999999 69.4)"/><path d="M480 959.6v64.02" stroke="#333" fill="none"/><path d="M480.5 959.62h-1v-.5h1z" fill="#333"/><path d="M480 1038.38l-4.64-14.26h9.28z" stroke="#333" fill="#333"/><path d="M471.24 799.92l3 1.24 2.6 2 2 2.6 1.24 3 .42 3.2v51.66h-1v-51.6l-.4-3-1.14-2.76-1.83-2.4-2.4-1.82-2.75-1.14-3-.4h-19.54v-1h19.6zm-132.6.58v-1h86.85v1z" fill="#333"/><path d="M338.66 800.5h-.54l.04-1h.5zM480 878.38l-4.64-14.26h9.28z" fill="#333"/><path d="M480 880l-5.32-16.38h10.64zm-3.95-15.38l3.95 12.14 3.95-12.14z" fill="#333"/><use xlink:href="#y" transform="matrix(1,0,0,1,425.4878782445521,789.2) translate(0.005000000000000782 14.4)"/><path d="M260.5 724.53h-1v-25.3h1zm0-46.9h-1V659.6h1zM260.5 659.1v.5h-1v-.52zM260 739.3l-4.64-14.27h9.28z" fill="#333"/><path d="M260 740.9l-5.32-16.37h10.64zm-3.95-15.37l3.95 12.15 3.95-12.15z" fill="#333"/><use xlink:href="#I" transform="matrix(1,0,0,1,245.325,677.6325300085053) translate(0.005000000000000782 14.4)"/><path d="M390 1048c0-4.42 3.58-8 8-8h164c4.42 0 8 3.58 8 8v64c0 4.42-3.58 8-8 8H398c-4.42 0-8-3.58-8-8z" stroke="#000" stroke-opacity="0" stroke-width="2" fill="#489bfc"/><use xlink:href="#N" transform="matrix(1,0,0,1,395,1045) translate(38.55 27.799999999999997)"/><use xlink:href="#O" transform="matrix(1,0,0,1,395,1045) translate(-6.349999999999994 49.4)"/><path d="M570.5 1080h154.97" stroke="#333" fill="none"/><path d="M570.5 1080.5h-.5v-1h.5z" fill="#333"/><path d="M740.24 1080l-14.27 4.64v-9.28z" stroke="#333" fill="#333"/><path d="M1100.5 513.36h-1V384.74h1zm-9.26-253.44l3 1.24 2.6 2 2 2.6 1.24 3 .42 3.2v91.18h-1v-91.1l-.4-3.02-1.14-2.76-1.83-2.4-2.4-1.82-2.75-1.14-3-.4h-29.34v-1h29.4z" fill="#333"/><path d="M1058.66 260.5h-.54l.04-1h.5zM1100 528.13l-4.64-14.27h9.28z" fill="#333"/><path d="M1100 529.75l-5.32-16.4h10.64zm-3.95-15.4l3.95 12.16 3.95-12.14z" fill="#333"/><use xlink:href="#I" transform="matrix(1,0,0,1,1085.325,363.14457094965945) translate(0.005000000000000782 14.4)"/><path d="M565.47 599.6v1H400v-1zm-226.83.9v-1h38.42v1z" fill="#333"/><path d="M338.66 600.5h-.54l.04-1h.5zM580.24 600.1l-14.27 4.64v-9.27z" fill="#333"/><path d="M581.86 600.1l-16.4 5.33v-10.65zm-15.4 3.95l12.16-3.94-12.15-3.94z" fill="#333"/><use xlink:href="#y" transform="matrix(1,0,0,1,377.0621618234907,589.3066227027874) translate(0.005000000000000782 14.4)"/><path d="M653.6 544.9c3.53-2.64 9.27-2.64 12.8 0l67.2 50.4c3.53 2.66 3.53 6.96 0 9.6l-67.2 50.4c-3.53 2.66-9.27 2.66-12.8 0l-67.2-50.4c-3.53-2.64-3.53-6.94 0-9.6z" stroke="#c54242" stroke-width="4" fill="#fff"/><use xlink:href="#P" transform="matrix(1,0,0,1,585,545.1066227027874) translate(49 47.8)"/><use xlink:href="#Q" transform="matrix(1,0,0,1,585,545.1066227027874) translate(86 47.8)"/><use xlink:href="#R" transform="matrix(1,0,0,1,585,545.1066227027874) translate(16.525 69.4)"/><path d="M660.5 540.52h-1v-29.2h1zm0-50.8h-1v-13.34h1z" fill="#333"/><path d="M660.5 541.03l-1-.02v-.5h1zM664.64 475.88h-9.28l4.64-14.26z" fill="#333"/><path d="M665.32 476.38h-10.64L660 460zm-9.27-1h7.9L660 463.24z" fill="#333"/><g><use xlink:href="#y" transform="matrix(1,0,0,1,648.525,489.7101177671591) translate(0.005000000000000782 14.4)"/></g><path d="M660.5 787.97l.4 3 1.14 2.77 1.83 2.4 2.4 1.82 2.75 1.14 3 .4h301.6v1H671.97l-3.2-.42-3-1.24-2.6-2-2-2.6-1.25-3-.42-3.2v-36.4h1zm0-57.94h-1V659.7h1zM660.5 659.2v.5h-1v-.5zM988.38 800l-14.26 4.64v-9.28z" fill="#333"/><path d="M990 800l-16.38 5.32v-10.64zm-15.38 3.95l12.14-3.95-12.14-3.95z" fill="#333"/><g><use xlink:href="#I" transform="matrix(1,0,0,1,645.325,730.0279210906996) translate(0.005000000000000782 14.4)"/></g><path d="M360 888c0-4.42 3.58-8 8-8h224c4.42 0 8 3.58 8 8v63.1c0 4.42-3.58 8-8 8H368c-4.42 0-8-3.58-8-8z" stroke="#000" stroke-opacity="0" stroke-width="2" fill="#489bfc"/><g><use xlink:href="#S" transform="matrix(1,0,0,1,365,885) translate(96 27.799999999999997)"/><use xlink:href="#T" transform="matrix(1,0,0,1,365,885) translate(1.0000000000000142 49.4)"/></g><path d="M253.6 744.8c3.53-2.65 9.27-2.65 12.8 0l67.2 50.4c3.53 2.65 3.53 6.95 0 9.6l-67.2 50.4c-3.53 2.65-9.27 2.65-12.8 0l-67.2-50.4c-3.53-2.65-3.53-6.95 0-9.6z" stroke="#c54242" stroke-width="4" fill="#fff"/><g><use xlink:href="#U" transform="matrix(1,0,0,1,185,745) translate(19.574999999999996 47.8)"/><use xlink:href="#V" transform="matrix(1,0,0,1,185,745) translate(117.475 47.8)"/><use xlink:href="#W" transform="matrix(1,0,0,1,185,745) translate(48.525 69.4)"/></g><path d="M260.5 1183.62h-1v-252.6h1zm0-274.2h-1v-49.83h1z" fill="#333"/><path d="M260.5 859.1v.5h-1v-.52zM260 1198.38l-4.64-14.26h9.28z" fill="#333"/><path d="M260 1200l-5.32-16.38h10.64zm-3.95-15.38l3.95 12.14 3.95-12.14z" fill="#333"/><g><use xlink:href="#I" transform="matrix(1,0,0,1,245.3250000000001,909.411450865368) translate(0.005000000000000782 14.4)"/></g><path d="M180 1208c0-4.42 3.58-8 8-8h144c4.42 0 8 3.58 8 8v44c0 4.42-3.58 8-8 8H188c-4.42 0-8-3.58-8-8z" stroke="#000" stroke-opacity="0" stroke-width="2" fill="#d85656"/><g><use xlink:href="#X" transform="matrix(1,0,0,1,185,1205) translate(29.624999999999993 28.6)"/></g><path d="M260 1260.5v77.5c0 6.63 5.37 12 12 12h291.62" stroke="#333" fill="none"/><path d="M260.5 1260.5h-1v-.5h1z" fill="#333"/><path d="M578.38 1350l-14.26 4.64v-9.28z" stroke="#333" fill="#333"/><defs><path fill="#3d4752" d="M185-189c-5-48-123-54-124 2 14 75 158 14 163 119 3 78-121 87-175 55-17-10-28-26-33-46l33-7c5 56 141 63 141-1 0-78-155-14-162-118-5-82 145-84 179-34 5 7 8 16 11 25" id="Y"/><path fill="#3d4752" d="M59-47c-2 24 18 29 38 22v24C64 9 27 4 27-40v-127H5v-23h24l9-43h21v43h35v23H59v120" id="Z"/><path fill="#3d4752" d="M141-36C126-15 110 5 73 4 37 3 15-17 15-53c-1-64 63-63 125-63 3-35-9-54-41-54-24 1-41 7-42 31l-33-3c5-37 33-52 76-52 45 0 72 20 72 64v82c-1 20 7 32 28 27v20c-31 9-61-2-59-35zM48-53c0 20 12 33 32 33 41-3 63-29 60-74-43 2-92-5-92 41" id="aa"/><path fill="#3d4752" d="M114-163C36-179 61-72 57 0H25l-1-190h30c1 12-1 29 2 39 6-27 23-49 58-41v29" id="ab"/><g id="a"><use transform="matrix(0.05,0,0,0.05,0,0)" xlink:href="#Y"/><use transform="matrix(0.05,0,0,0.05,12,0)" xlink:href="#Z"/><use transform="matrix(0.05,0,0,0.05,17,0)" xlink:href="#aa"/><use transform="matrix(0.05,0,0,0.05,27,0)" xlink:href="#ab"/><use transform="matrix(0.05,0,0,0.05,32.95,0)" xlink:href="#Z"/></g><path d="M24 0v-248h52V0H24" id="ac"/><path d="M220-157c-53 9-28 100-34 157h-49v-107c1-27-5-49-29-50C55-147 81-57 75 0H25l-1-190h47c2 12-1 28 3 38 10-53 101-56 108 0 13-22 24-43 59-42 82 1 51 116 57 194h-49v-107c-1-25-5-48-29-50" id="ad"/><path d="M135-194c53 0 70 44 70 98 0 56-19 98-73 100-31 1-45-17-59-34 3 33 2 69 2 105H25l-1-265h48c2 10 0 23 3 31 11-24 29-35 60-35zM114-30c33 0 39-31 40-66 0-38-9-64-40-64-56 0-55 130 0 130" id="ae"/><path d="M110-194c64 0 96 36 96 99 0 64-35 99-97 99-61 0-95-36-95-99 0-62 34-99 96-99zm-1 164c35 0 45-28 45-65 0-40-10-65-43-65-34 0-45 26-45 65 0 36 10 65 43 65" id="af"/><path d="M135-150c-39-12-60 13-60 57V0H25l-1-190h47c2 13-1 29 3 40 6-28 27-53 61-41v41" id="ag"/><path d="M115-3C79 11 28 4 28-45v-112H4v-33h27l15-45h31v45h36v33H77v99c-1 23 16 31 38 25v30" id="ah"/><g id="b"><use transform="matrix(0.05,0,0,0.05,0,0)" xlink:href="#ac"/><use transform="matrix(0.05,0,0,0.05,5,0)" xlink:href="#ad"/><use transform="matrix(0.05,0,0,0.05,21,0)" xlink:href="#ae"/><use transform="matrix(0.05,0,0,0.05,31.950000000000003,0)" xlink:href="#af"/><use transform="matrix(0.05,0,0,0.05,42.900000000000006,0)" xlink:href="#ag"/><use transform="matrix(0.05,0,0,0.05,49.900000000000006,0)" xlink:href="#ah"/></g><path d="M133-34C117-15 103 5 69 4 32 3 11-16 11-54c-1-60 55-63 116-61 1-26-3-47-28-47-18 1-26 9-28 27l-52-2c7-38 36-58 82-57s74 22 75 68l1 82c-1 14 12 18 25 15v27c-30 8-71 5-69-32zm-48 3c29 0 43-24 42-57-32 0-66-3-65 30 0 17 8 27 23 27" id="ai"/><path d="M190-63c-7 42-38 67-86 67-59 0-84-38-90-98-12-110 154-137 174-36l-49 2c-2-19-15-32-35-32-30 0-35 28-38 64-6 74 65 87 74 30" id="aj"/><path d="M114-157C55-157 80-60 75 0H25v-261h50l-1 109c12-26 28-41 61-42 86-1 58 113 63 194h-50c-7-57 23-157-34-157" id="ak"/><path d="M25-224v-37h50v37H25zM25 0v-190h50V0H25" id="al"/><path d="M135-194c87-1 58 113 63 194h-50c-7-57 23-157-34-157-59 0-34 97-39 157H25l-1-190h47c2 12-1 28 3 38 12-26 28-41 61-42" id="am"/><path d="M123 10C108 53 80 86 19 72V37c35 8 53-11 59-39L3-190h52l48 148c12-52 28-100 44-148h51" id="an"/><g id="c"><use transform="matrix(0.05,0,0,0.05,0,0)" xlink:href="#ad"/><use transform="matrix(0.05,0,0,0.05,16,0)" xlink:href="#ai"/><use transform="matrix(0.05,0,0,0.05,26,0)" xlink:href="#aj"/><use transform="matrix(0.05,0,0,0.05,36,0)" xlink:href="#ak"/><use transform="matrix(0.05,0,0,0.05,46.95,0)" xlink:href="#al"/><use transform="matrix(0.05,0,0,0.05,51.95,0)" xlink:href="#am"/><use transform="matrix(0.05,0,0,0.05,62.900000000000006,0)" xlink:href="#ai"/><use transform="matrix(0.05,0,0,0.05,72.9,0)" xlink:href="#ag"/><use transform="matrix(0.05,0,0,0.05,79.9,0)" xlink:href="#an"/></g><path d="M87 75C49 33 22-17 22-94c0-76 28-126 65-167h31c-38 41-64 92-64 168S80 34 118 75H87" id="ao"/><path d="M50-231l6-30h32l-6 30H50zM6 0l37-190h31L37 0H6" id="ap"/><path d="M248-111c6-24 9-61-24-58-72 9-57 108-77 169h-31l26-142c3-37-50-30-64-10C52-115 50-51 37 0H6l36-190h30c-1 10-6 24-4 32 13-43 101-52 105 5 13-22 29-41 61-41 90 0 28 129 23 194h-31" id="aq"/><path d="M67-162c32-53 139-36 121 50C175-51 163 2 97 4 68 4 52-11 42-31 38 6 28 39 22 75H-9l50-265h29c-1 10 0 20-3 28zm89 36c0-26-10-43-35-43-54 0-67 50-69 103-1 29 14 45 42 46 53 0 62-58 62-106" id="ar"/><path d="M30-147c31-64 166-65 159 27C183-49 158 1 86 4 9 8 1-88 30-147zM88-20c53 0 68-48 68-100 0-31-11-51-44-50-52 1-68 46-68 97 0 32 13 53 44 53" id="as"/><path d="M66-151c12-25 30-51 66-40l-6 26C45-176 58-65 38 0H6l36-190h30" id="at"/><path d="M51-54c-9 22 5 41 31 30L79-1C43 14 10-4 19-52l22-115H19l5-23h22l19-43h21l-9 43h35l-4 23H73" id="au"/><g id="d"><use transform="matrix(0.05,0,0,0.05,0,0)" xlink:href="#ao"/><use transform="matrix(0.05,0,0,0.05,5.95,0)" xlink:href="#ap"/><use transform="matrix(0.05,0,0,0.05,9.9,0)" xlink:href="#aq"/><use transform="matrix(0.05,0,0,0.05,24.85,0)" xlink:href="#ar"/><use transform="matrix(0.05,0,0,0.05,34.85,0)" xlink:href="#as"/><use transform="matrix(0.05,0,0,0.05,44.85,0)" xlink:href="#at"/><use transform="matrix(0.05,0,0,0.05,50.800000000000004,0)" xlink:href="#au"/></g><path d="M135-143c-3-34-86-38-87 0 15 53 115 12 119 90S17 21 10-45l28-5c4 36 97 45 98 0-10-56-113-15-118-90-4-57 82-63 122-42 12 7 21 19 24 35" id="av"/><path d="M59-47c-2 24 18 29 38 22v24C64 9 27 4 27-40v-127H5v-23h24l9-43h21v43h35v23H59v120" id="aw"/><path d="M141-36C126-15 110 5 73 4 37 3 15-17 15-53c-1-64 63-63 125-63 3-35-9-54-41-54-24 1-41 7-42 31l-33-3c5-37 33-52 76-52 45 0 72 20 72 64v82c-1 20 7 32 28 27v20c-31 9-61-2-59-35zM48-53c0 20 12 33 32 33 41-3 63-29 60-74-43 2-92-5-92 41" id="ax"/><path d="M100-194c63 0 86 42 84 106H49c0 40 14 67 53 68 26 1 43-12 49-29l28 8c-11 28-37 45-77 45C44 4 14-33 15-96c1-61 26-98 85-98zm52 81c6-60-76-77-97-28-3 7-6 17-6 28h103" id="ay"/><path d="M210-169c-67 3-38 105-44 169h-31v-121c0-29-5-50-35-48C34-165 62-65 56 0H25l-1-190h30c1 10-1 24 2 32 10-44 99-50 107 0 11-21 27-35 58-36 85-2 47 119 55 194h-31v-121c0-29-5-49-35-48" id="az"/><path d="M117-194c89-4 53 116 60 194h-32v-121c0-31-8-49-39-48C34-167 62-67 57 0H25l-1-190h30c1 10-1 24 2 32 11-22 29-35 61-36" id="aA"/><path d="M68-38c1 34 0 65-14 84H32c9-13 17-26 17-46H33v-38h35" id="aB"/><g id="e"><use transform="matrix(0.05,0,0,0.05,0,0)" xlink:href="#av"/><use transform="matrix(0.05,0,0,0.05,9,0)" xlink:href="#aw"/><use transform="matrix(0.05,0,0,0.05,14,0)" xlink:href="#ax"/><use transform="matrix(0.05,0,0,0.05,24,0)" xlink:href="#aw"/><use transform="matrix(0.05,0,0,0.05,29,0)" xlink:href="#ay"/><use transform="matrix(0.05,0,0,0.05,39,0)" xlink:href="#az"/><use transform="matrix(0.05,0,0,0.05,53.95,0)" xlink:href="#ay"/><use transform="matrix(0.05,0,0,0.05,63.95,0)" xlink:href="#aA"/><use transform="matrix(0.05,0,0,0.05,73.95,0)" xlink:href="#aw"/><use transform="matrix(0.05,0,0,0.05,78.95,0)" xlink:href="#aB"/></g><path d="M6 0l50-261h32L37 0H6" id="aC"/><path d="M68-162c25-46 127-43 121 31C183-60 169 1 98 4 69 5 53-11 43-31L36 0H5l52-261h31zm88 36c2-27-9-43-34-43-55 0-70 51-70 103 0 29 15 45 43 46 52 0 58-58 61-106" id="aD"/><path d="M14 0l8-38h34L48 0H14" id="aE"/><path d="M-28 44V31h207v13H-28" id="aF"/><path d="M133-28C103 26-5 8 13-77c13-62 24-115 90-117 29-1 46 15 56 35l19-102h32L160 0h-30zM45-64c-2 27 10 43 35 43 54-1 69-50 69-103 0-29-15-46-42-46-53-1-58 58-62 106" id="aG"/><path d="M67 3c-93-2-31-127-26-193h32L48-50c-3 39 53 32 70 12 30-34 30-101 43-152h32L157 0h-30c1-10 6-24 4-33-14 20-29 37-64 36" id="aH"/><path d="M111-194c62-3 86 47 72 106H45c-7 38 6 69 45 68 27-1 43-14 53-32l24 11C152-15 129 4 87 4 38 3 12-23 12-71c0-70 32-119 99-123zm44 81c14-66-71-72-95-28-4 8-8 17-11 28h106" id="aI"/><path d="M17-49c1-102 45-165 103-212h30C92-210 49-145 49-46 49 4 63 43 85 75H54C30 43 18 2 17-49" id="aJ"/><path d="M98-137C97-35 54 29-4 75h-31C23 23 67-41 67-140c0-50-15-89-37-121h31c24 32 36 73 37 124" id="aK"/><g id="f"><use transform="matrix(0.05,0,0,0.05,0,0)" xlink:href="#ap"/><use transform="matrix(0.05,0,0,0.05,3.95,0)" xlink:href="#aq"/><use transform="matrix(0.05,0,0,0.05,18.900000000000002,0)" xlink:href="#ar"/><use transform="matrix(0.05,0,0,0.05,28.900000000000002,0)" xlink:href="#as"/><use transform="matrix(0.05,0,0,0.05,38.900000000000006,0)" xlink:href="#at"/><use transform="matrix(0.05,0,0,0.05,44.85000000000001,0)" xlink:href="#au"/><use transform="matrix(0.05,0,0,0.05,49.85000000000001,0)" xlink:href="#aC"/><use transform="matrix(0.05,0,0,0.05,53.80000000000001,0)" xlink:href="#ap"/><use transform="matrix(0.05,0,0,0.05,57.750000000000014,0)" xlink:href="#aD"/><use transform="matrix(0.05,0,0,0.05,67.75000000000001,0)" xlink:href="#aE"/><use transform="matrix(0.05,0,0,0.05,72.75000000000001,0)" xlink:href="#ap"/><use transform="matrix(0.05,0,0,0.05,76.70000000000002,0)" xlink:href="#aq"/><use transform="matrix(0.05,0,0,0.05,91.65000000000002,0)" xlink:href="#ar"/><use transform="matrix(0.05,0,0,0.05,101.65000000000002,0)" xlink:href="#as"/><use transform="matrix(0.05,0,0,0.05,111.65000000000003,0)" xlink:href="#at"/><use transform="matrix(0.05,0,0,0.05,117.60000000000002,0)" xlink:href="#au"/><use transform="matrix(0.05,0,0,0.05,122.60000000000002,0)" xlink:href="#aF"/><use transform="matrix(0.05,0,0,0.05,132.60000000000002,0)" xlink:href="#aq"/><use transform="matrix(0.05,0,0,0.05,147.55,0)" xlink:href="#as"/><use transform="matrix(0.05,0,0,0.05,157.55,0)" xlink:href="#aG"/><use transform="matrix(0.05,0,0,0.05,167.55,0)" xlink:href="#aH"/><use transform="matrix(0.05,0,0,0.05,177.55,0)" xlink:href="#aC"/><use transform="matrix(0.05,0,0,0.05,181.5,0)" xlink:href="#aI"/><use transform="matrix(0.05,0,0,0.05,191.5,0)" xlink:href="#aJ"/><use transform="matrix(0.05,0,0,0.05,197.45,0)" xlink:href="#aK"/><use transform="matrix(0.05,0,0,0.05,203.39999999999998,0)" xlink:href="#aB"/></g><g id="g"><use transform="matrix(0.05,0,0,0.05,0,0)" xlink:href="#aF"/><use transform="matrix(0.05,0,0,0.05,10,0)" xlink:href="#aF"/><use transform="matrix(0.05,0,0,0.05,20,0)" xlink:href="#ap"/><use transform="matrix(0.05,0,0,0.05,23.95,0)" xlink:href="#aq"/><use transform="matrix(0.05,0,0,0.05,38.9,0)" xlink:href="#ar"/><use transform="matrix(0.05,0,0,0.05,48.9,0)" xlink:href="#as"/><use transform="matrix(0.05,0,0,0.05,58.900000000000006,0)" xlink:href="#at"/><use transform="matrix(0.05,0,0,0.05,64.85,0)" xlink:href="#au"/><use transform="matrix(0.05,0,0,0.05,69.85,0)" xlink:href="#aF"/><use transform="matrix(0.05,0,0,0.05,79.85,0)" xlink:href="#aF"/><use transform="matrix(0.05,0,0,0.05,89.85,0)" xlink:href="#aJ"/><use transform="matrix(0.05,0,0,0.05,95.8,0)" xlink:href="#aK"/><use transform="matrix(0.05,0,0,0.05,101.75,0)" xlink:href="#aB"/></g><path d="M96-169c-40 0-48 33-48 73s9 75 48 75c24 0 41-14 43-38l32 2c-6 37-31 61-74 61-59 0-76-41-82-99-10-93 101-131 147-64 4 7 5 14 7 22l-32 3c-4-21-16-35-41-35" id="aL"/><path d="M33-261c38 41 65 92 65 168S71 34 33 75H2C39 34 66-17 66-93S39-220 2-261h31" id="aM"/><g id="h"><use transform="matrix(0.05,0,0,0.05,0,0)" xlink:href="#ay"/><use transform="matrix(0.05,0,0,0.05,10,0)" xlink:href="#aw"/><use transform="matrix(0.05,0,0,0.05,15,0)" xlink:href="#aL"/><use transform="matrix(0.05,0,0,0.05,24,0)" xlink:href="#aM"/></g><g id="i"><use transform="matrix(0.05,0,0,0.05,0,0)" xlink:href="#aA"/><use transform="matrix(0.05,0,0,0.05,10,0)" xlink:href="#ax"/><use transform="matrix(0.05,0,0,0.05,20,0)" xlink:href="#az"/><use transform="matrix(0.05,0,0,0.05,34.95,0)" xlink:href="#ay"/></g><path d="M115-194c53 0 69 39 70 98 0 66-23 100-70 100C84 3 66-7 56-30L54 0H23l1-261h32v101c10-23 28-34 59-34zm-8 174c40 0 45-34 45-75 0-40-5-75-45-74-42 0-51 32-51 76 0 43 10 73 51 73" id="aN"/><path d="M24-231v-30h32v30H24zM24 0v-190h32V0H24" id="aO"/><path d="M85-194c31 0 48 13 60 33l-1-100h32l1 261h-30c-2-10 0-23-3-31C134-8 116 4 85 4 32 4 16-35 15-94c0-66 23-100 70-100zm9 24c-40 0-46 34-46 75 0 40 6 74 45 74 42 0 51-32 51-76 0-42-9-74-50-73" id="aP"/><path d="M177-190C167-65 218 103 67 71c-23-6-38-20-44-43l32-5c15 47 100 32 89-28v-30C133-14 115 1 83 1 29 1 15-40 15-95c0-56 16-97 71-98 29-1 48 16 59 35 1-10 0-23 2-32h30zM94-22c36 0 50-32 50-73 0-42-14-75-50-75-39 0-46 34-46 75s6 73 46 73" id="aQ"/><g id="j"><use transform="matrix(0.05,0,0,0.05,0,0)" xlink:href="#aN"/><use transform="matrix(0.05,0,0,0.05,10,0)" xlink:href="#aO"/><use transform="matrix(0.05,0,0,0.05,13.949999999999998,0)" xlink:href="#aA"/><use transform="matrix(0.05,0,0,0.05,23.95,0)" xlink:href="#aP"/><use transform="matrix(0.05,0,0,0.05,33.95,0)" xlink:href="#aO"/><use transform="matrix(0.05,0,0,0.05,37.900000000000006,0)" xlink:href="#aA"/><use transform="matrix(0.05,0,0,0.05,47.900000000000006,0)" xlink:href="#aQ"/></g><path fill="#333" d="M185-189c-5-48-123-54-124 2 14 75 158 14 163 119 3 78-121 87-175 55-17-10-28-26-33-46l33-7c5 56 141 63 141-1 0-78-155-14-162-118-5-82 145-84 179-34 5 7 8 16 11 25" id="aR"/><path fill="#333" d="M59-47c-2 24 18 29 38 22v24C64 9 27 4 27-40v-127H5v-23h24l9-43h21v43h35v23H59v120" id="aS"/><path fill="#333" d="M100-194c62-1 85 37 85 99 1 63-27 99-86 99S16-35 15-95c0-66 28-99 85-99zM99-20c44 1 53-31 53-75 0-43-8-75-51-75s-53 32-53 75 10 74 51 75" id="aT"/><path fill="#333" d="M115-194c55 1 70 41 70 98S169 2 115 4C84 4 66-9 55-30l1 105H24l-1-265h31l2 30c10-21 28-34 59-34zm-8 174c40 0 45-34 45-75s-6-73-45-74c-42 0-51 32-51 76 0 43 10 73 51 73" id="aU"/><g id="k"><use transform="matrix(0.05,0,0,0.05,0,0)" xlink:href="#aR"/><use transform="matrix(0.05,0,0,0.05,12,0)" xlink:href="#aS"/><use transform="matrix(0.05,0,0,0.05,17,0)" xlink:href="#aT"/><use transform="matrix(0.05,0,0,0.05,27,0)" xlink:href="#aU"/></g><path fill="#333" d="M175 0L67-191c6 58 2 128 3 191H24v-248h59L193-55c-6-58-2-129-3-193h46V0h-61" id="aV"/><path fill="#333" d="M140-251c80 0 125 45 125 126S219 4 139 4C58 4 15-44 15-125s44-126 125-126zm-1 214c52 0 73-35 73-88 0-50-21-86-72-86-52 0-73 35-73 86s22 88 72 88" id="aW"/><g id="l"><use transform="matrix(0.04320987654320988,0,0,0.04320987654320988,0,0)" xlink:href="#aV"/><use transform="matrix(0.04320987654320988,0,0,0.04320987654320988,11.19135802469136,0)" xlink:href="#aW"/></g><path fill="#333" d="M146-102V0H94v-102L6-248h54l60 105 60-105h54" id="aX"/><path fill="#333" d="M24 0v-248h195v40H76v63h132v40H76v65h150V0H24" id="aY"/><path fill="#333" d="M169-182c-1-43-94-46-97-3 18 66 151 10 154 114 3 95-165 93-204 36-6-8-10-19-12-30l50-8c3 46 112 56 116 5-17-69-150-10-154-114-4-87 153-88 188-35 5 8 8 18 10 28" id="aZ"/><g id="m"><use transform="matrix(0.04320987654320988,0,0,0.04320987654320988,0,0)" xlink:href="#aX"/><use transform="matrix(0.04320987654320988,0,0,0.04320987654320988,10.370370370370372,0)" xlink:href="#aY"/><use transform="matrix(0.04320987654320988,0,0,0.04320987654320988,20.740740740740744,0)" xlink:href="#aZ"/></g><path fill="#333" d="M50-231l6-30h32l-6 30H50zM6 0l37-190h31L37 0H6" id="ba"/><path fill="#333" d="M248-111c6-24 9-61-24-58-72 9-57 108-77 169h-31l26-142c3-37-50-30-64-10C52-115 50-51 37 0H6l36-190h30c-1 10-6 24-4 32 13-43 101-52 105 5 13-22 29-41 61-41 90 0 28 129 23 194h-31" id="bb"/><path fill="#333" d="M67-162c32-53 139-36 121 50C175-51 163 2 97 4 68 4 52-11 42-31 38 6 28 39 22 75H-9l50-265h29c-1 10 0 20-3 28zm89 36c0-26-10-43-35-43-54 0-67 50-69 103-1 29 14 45 42 46 53 0 62-58 62-106" id="bc"/><path fill="#333" d="M30-147c31-64 166-65 159 27C183-49 158 1 86 4 9 8 1-88 30-147zM88-20c53 0 68-48 68-100 0-31-11-51-44-50-52 1-68 46-68 97 0 32 13 53 44 53" id="bd"/><path fill="#333" d="M66-151c12-25 30-51 66-40l-6 26C45-176 58-65 38 0H6l36-190h30" id="be"/><path fill="#333" d="M51-54c-9 22 5 41 31 30L79-1C43 14 10-4 19-52l22-115H19l5-23h22l19-43h21l-9 43h35l-4 23H73" id="bf"/><g id="n"><use transform="matrix(0.05,0,0,0.05,0,0)" xlink:href="#ba"/><use transform="matrix(0.05,0,0,0.05,3.95,0)" xlink:href="#bb"/><use transform="matrix(0.05,0,0,0.05,18.900000000000002,0)" xlink:href="#bc"/><use transform="matrix(0.05,0,0,0.05,28.900000000000002,0)" xlink:href="#bd"/><use transform="matrix(0.05,0,0,0.05,38.900000000000006,0)" xlink:href="#be"/><use transform="matrix(0.05,0,0,0.05,44.85000000000001,0)" xlink:href="#bf"/></g><path fill="#333" d="M135-143c-3-34-86-38-87 0 15 53 115 12 119 90S17 21 10-45l28-5c4 36 97 45 98 0-10-56-113-15-118-90-4-57 82-63 122-42 12 7 21 19 24 35" id="bg"/><path fill="#333" d="M141-36C126-15 110 5 73 4 37 3 15-17 15-53c-1-64 63-63 125-63 3-35-9-54-41-54-24 1-41 7-42 31l-33-3c5-37 33-52 76-52 45 0 72 20 72 64v82c-1 20 7 32 28 27v20c-31 9-61-2-59-35zM48-53c0 20 12 33 32 33 41-3 63-29 60-74-43 2-92-5-92 41" id="bh"/><path fill="#333" d="M100-194c63 0 86 42 84 106H49c0 40 14 67 53 68 26 1 43-12 49-29l28 8c-11 28-37 45-77 45C44 4 14-33 15-96c1-61 26-98 85-98zm52 81c6-60-76-77-97-28-3 7-6 17-6 28h103" id="bi"/><path fill="#333" d="M210-169c-67 3-38 105-44 169h-31v-121c0-29-5-50-35-48C34-165 62-65 56 0H25l-1-190h30c1 10-1 24 2 32 10-44 99-50 107 0 11-21 27-35 58-36 85-2 47 119 55 194h-31v-121c0-29-5-49-35-48" id="bj"/><path fill="#333" d="M117-194c89-4 53 116 60 194h-32v-121c0-31-8-49-39-48C34-167 62-67 57 0H25l-1-190h30c1 10-1 24 2 32 11-22 29-35 61-36" id="bk"/><path fill="#333" d="M103-251c84 0 111 97 45 133-19 10-37 24-39 52H78c0-63 77-55 77-114 0-30-21-42-52-43-32 0-53 17-56 46l-32-2c7-45 34-72 88-72zM77 0v-35h34V0H77" id="bl"/><g id="p"><use transform="matrix(0.05,0,0,0.05,0,0)" xlink:href="#bg"/><use transform="matrix(0.05,0,0,0.05,9,0)" xlink:href="#aS"/><use transform="matrix(0.05,0,0,0.05,14,0)" xlink:href="#bh"/><use transform="matrix(0.05,0,0,0.05,24,0)" xlink:href="#aS"/><use transform="matrix(0.05,0,0,0.05,29,0)" xlink:href="#bi"/><use transform="matrix(0.05,0,0,0.05,39,0)" xlink:href="#bj"/><use transform="matrix(0.05,0,0,0.05,53.95,0)" xlink:href="#bi"/><use transform="matrix(0.05,0,0,0.05,63.95,0)" xlink:href="#bk"/><use transform="matrix(0.05,0,0,0.05,73.95,0)" xlink:href="#aS"/><use transform="matrix(0.05,0,0,0.05,78.95,0)" xlink:href="#bl"/></g><path fill="#a9afb8" d="M24-248c93 1 206-16 204 79-1 75-69 88-152 82V0H24v-248zm52 121c47 0 100 7 100-41 0-47-54-39-100-39v80" id="bm"/><path fill="#a9afb8" d="M123 10C108 53 80 86 19 72V37c35 8 53-11 59-39L3-190h52l48 148c12-52 28-100 44-148h51" id="bn"/><path fill="#a9afb8" d="M115-3C79 11 28 4 28-45v-112H4v-33h27l15-45h31v45h36v33H77v99c-1 23 16 31 38 25v30" id="bo"/><path fill="#a9afb8" d="M114-157C55-157 80-60 75 0H25v-261h50l-1 109c12-26 28-41 61-42 86-1 58 113 63 194h-50c-7-57 23-157-34-157" id="bp"/><path fill="#a9afb8" d="M110-194c64 0 96 36 96 99 0 64-35 99-97 99-61 0-95-36-95-99 0-62 34-99 96-99zm-1 164c35 0 45-28 45-65 0-40-10-65-43-65-34 0-45 26-45 65 0 36 10 65 43 65" id="bq"/><path fill="#a9afb8" d="M135-194c87-1 58 113 63 194h-50c-7-57 23-157-34-157-59 0-34 97-39 157H25l-1-190h47c2 12-1 28 3 38 12-26 28-41 61-42" id="br"/><g id="q"><use transform="matrix(0.0728395061728395,0,0,0.0728395061728395,0,0)" xlink:href="#bm"/><use transform="matrix(0.0728395061728395,0,0,0.0728395061728395,17.48148148148148,0)" xlink:href="#bn"/><use transform="matrix(0.0728395061728395,0,0,0.0728395061728395,32.04938271604938,0)" xlink:href="#bo"/><use transform="matrix(0.0728395061728395,0,0,0.0728395061728395,40.717283950617286,0)" xlink:href="#bp"/><use transform="matrix(0.0728395061728395,0,0,0.0728395061728395,56.66913580246913,0)" xlink:href="#bq"/><use transform="matrix(0.0728395061728395,0,0,0.0728395061728395,72.62098765432098,0)" xlink:href="#br"/></g><path fill="#a9afb8" d="M24 0v-248h52V0H24" id="bs"/><path fill="#a9afb8" d="M220-157c-53 9-28 100-34 157h-49v-107c1-27-5-49-29-50C55-147 81-57 75 0H25l-1-190h47c2 12-1 28 3 38 10-53 101-56 108 0 13-22 24-43 59-42 82 1 51 116 57 194h-49v-107c-1-25-5-48-29-50" id="bt"/><path fill="#a9afb8" d="M135-194c53 0 70 44 70 98 0 56-19 98-73 100-31 1-45-17-59-34 3 33 2 69 2 105H25l-1-265h48c2 10 0 23 3 31 11-24 29-35 60-35zM114-30c33 0 39-31 40-66 0-38-9-64-40-64-56 0-55 130 0 130" id="bu"/><path fill="#a9afb8" d="M135-150c-39-12-60 13-60 57V0H25l-1-190h47c2 13-1 29 3 40 6-28 27-53 61-41v41" id="bv"/><g id="r"><use transform="matrix(0.0728395061728395,0,0,0.0728395061728395,0,0)" xlink:href="#bs"/><use transform="matrix(0.0728395061728395,0,0,0.0728395061728395,7.28395061728395,0)" xlink:href="#bt"/><use transform="matrix(0.0728395061728395,0,0,0.0728395061728395,30.59259259259259,0)" xlink:href="#bu"/><use transform="matrix(0.0728395061728395,0,0,0.0728395061728395,46.544444444444444,0)" xlink:href="#bq"/><use transform="matrix(0.0728395061728395,0,0,0.0728395061728395,62.49629629629629,0)" xlink:href="#bv"/><use transform="matrix(0.0728395061728395,0,0,0.0728395061728395,72.69382716049383,0)" xlink:href="#bo"/></g><path fill="#a9afb8" d="M169-182c-1-43-94-46-97-3 18 66 151 10 154 114 3 95-165 93-204 36-6-8-10-19-12-30l50-8c3 46 112 56 116 5-17-69-150-10-154-114-4-87 153-88 188-35 5 8 8 18 10 28" id="bw"/><path fill="#a9afb8" d="M137-138c1-29-70-34-71-4 15 46 118 7 119 86 1 83-164 76-172 9l43-7c4 19 20 25 44 25 33 8 57-30 24-41C81-84 22-81 20-136c-2-80 154-74 161-7" id="bx"/><path fill="#a9afb8" d="M185-48c-13 30-37 53-82 52C43 2 14-33 14-96s30-98 90-98c62 0 83 45 84 108H66c0 31 8 55 39 56 18 0 30-7 34-22zm-45-69c5-46-57-63-70-21-2 6-4 13-4 21h74" id="by"/><g id="s"><use transform="matrix(0.0728395061728395,0,0,0.0728395061728395,0,0)" xlink:href="#bw"/><use transform="matrix(0.0728395061728395,0,0,0.0728395061728395,17.48148148148148,0)" xlink:href="#bn"/><use transform="matrix(0.0728395061728395,0,0,0.0728395061728395,32.04938271604938,0)" xlink:href="#bx"/><use transform="matrix(0.0728395061728395,0,0,0.0728395061728395,46.61728395061728,0)" xlink:href="#bo"/><use transform="matrix(0.0728395061728395,0,0,0.0728395061728395,55.28518518518518,0)" xlink:href="#by"/><use transform="matrix(0.0728395061728395,0,0,0.0728395061728395,69.85308641975308,0)" xlink:href="#bt"/></g><path d="M114-163C36-179 61-72 57 0H25l-1-190h30c1 12-1 29 2 39 6-27 23-49 58-41v29" id="bz"/><path d="M84 4C-5 8 30-112 23-190h32v120c0 31 7 50 39 49 72-2 45-101 50-169h31l1 190h-30c-1-10 1-25-2-33-11 22-28 36-60 37" id="bA"/><g id="t"><use transform="matrix(0.05,0,0,0.05,0,0)" xlink:href="#bz"/><use transform="matrix(0.05,0,0,0.05,5.95,0)" xlink:href="#ay"/><use transform="matrix(0.05,0,0,0.05,15.949999999999998,0)" xlink:href="#aw"/><use transform="matrix(0.05,0,0,0.05,20.95,0)" xlink:href="#bA"/><use transform="matrix(0.05,0,0,0.05,30.950000000000003,0)" xlink:href="#bz"/><use transform="matrix(0.05,0,0,0.05,36.9,0)" xlink:href="#aA"/></g><path d="M100-194c62-1 85 37 85 99 1 63-27 99-86 99S16-35 15-95c0-66 28-99 85-99zM99-20c44 1 53-31 53-75 0-43-8-75-51-75s-53 32-53 75 10 74 51 75" id="bB"/><path d="M24 0v-261h32V0H24" id="bC"/><g id="u"><use transform="matrix(0.05,0,0,0.05,0,0)" xlink:href="#az"/><use transform="matrix(0.05,0,0,0.05,14.950000000000001,0)" xlink:href="#bB"/><use transform="matrix(0.05,0,0,0.05,24.950000000000003,0)" xlink:href="#aP"/><use transform="matrix(0.05,0,0,0.05,34.95,0)" xlink:href="#bA"/><use transform="matrix(0.05,0,0,0.05,44.95,0)" xlink:href="#bC"/><use transform="matrix(0.05,0,0,0.05,48.900000000000006,0)" xlink:href="#ay"/></g><path d="M24-231v-30h32v30H24zM-9 49c24 4 33-6 33-30v-209h32V24c2 40-23 58-65 49V49" id="bD"/><g id="v"><use transform="matrix(0.05,0,0,0.05,0,0)" xlink:href="#bB"/><use transform="matrix(0.05,0,0,0.05,10,0)" xlink:href="#aN"/><use transform="matrix(0.05,0,0,0.05,20,0)" xlink:href="#bD"/><use transform="matrix(0.05,0,0,0.05,23.95,0)" xlink:href="#ay"/><use transform="matrix(0.05,0,0,0.05,33.95,0)" xlink:href="#aL"/><use transform="matrix(0.05,0,0,0.05,42.95,0)" xlink:href="#aw"/></g><path fill="#333" d="M33 0v-248h34V0H33" id="bE"/><g id="w"><use transform="matrix(0.05,0,0,0.05,0,0)" xlink:href="#bE"/><use transform="matrix(0.05,0,0,0.05,5,0)" xlink:href="#bk"/></g><path fill="#333" d="M55-144c13 50 104 24 104 88C159 21 15 23 1-39l26-10c6 40 102 42 102-4-13-50-104-23-104-87 0-71 143-71 148-8l-29 4c-5-35-85-37-89 0" id="bF"/><path fill="#333" d="M198-190L69 30C53 58 25 83-20 72c4-11-1-27 19-22 33-1 43-29 59-52L20-190h32L79-34l84-156h35" id="bG"/><path fill="#333" d="M14 0l8-38h34L48 0H14" id="bH"/><path fill="#333" d="M133-28C103 26-5 8 13-77c13-62 24-115 90-117 29-1 46 15 56 35l19-102h32L160 0h-30zM45-64c-2 27 10 43 35 43 54-1 69-50 69-103 0-29-15-46-42-46-53-1-58 58-62 106" id="bI"/><path fill="#333" d="M67 3c-93-2-31-127-26-193h32L48-50c-3 39 53 32 70 12 30-34 30-101 43-152h32L157 0h-30c1-10 6-24 4-33-14 20-29 37-64 36" id="bJ"/><path fill="#333" d="M6 0l50-261h32L37 0H6" id="bK"/><path fill="#333" d="M111-194c62-3 86 47 72 106H45c-7 38 6 69 45 68 27-1 43-14 53-32l24 11C152-15 129 4 87 4 38 3 12-23 12-71c0-70 32-119 99-123zm44 81c14-66-71-72-95-28-4 8-8 17-11 28h106" id="bL"/><g id="x"><use transform="matrix(0.05,0,0,0.05,0,0)" xlink:href="#bF"/><use transform="matrix(0.05,0,0,0.05,9,0)" xlink:href="#bG"/><use transform="matrix(0.05,0,0,0.05,18,0)" xlink:href="#bF"/><use transform="matrix(0.05,0,0,0.05,27,0)" xlink:href="#bH"/><use transform="matrix(0.05,0,0,0.05,32,0)" xlink:href="#bb"/><use transform="matrix(0.05,0,0,0.05,46.95,0)" xlink:href="#bd"/><use transform="matrix(0.05,0,0,0.05,56.95,0)" xlink:href="#bI"/><use transform="matrix(0.05,0,0,0.05,66.95,0)" xlink:href="#bJ"/><use transform="matrix(0.05,0,0,0.05,76.95,0)" xlink:href="#bK"/><use transform="matrix(0.05,0,0,0.05,80.9,0)" xlink:href="#bL"/><use transform="matrix(0.05,0,0,0.05,90.9,0)" xlink:href="#bF"/></g><path fill="#333" d="M190 0L58-211 59 0H30v-248h39L202-35l-2-213h31V0h-41" id="bM"/><g id="y"><use transform="matrix(0.05,0,0,0.05,0,0)" xlink:href="#bM"/><use transform="matrix(0.05,0,0,0.05,12.950000000000001,0)" xlink:href="#aT"/></g><path d="M141 0L90-78 38 0H4l68-98-65-92h35l48 74 47-74h35l-64 92 68 98h-35" id="bN"/><g id="z"><use transform="matrix(0.05,0,0,0.05,0,0)" xlink:href="#aA"/><use transform="matrix(0.05,0,0,0.05,10,0)" xlink:href="#ay"/><use transform="matrix(0.05,0,0,0.05,20,0)" xlink:href="#bN"/><use transform="matrix(0.05,0,0,0.05,29,0)" xlink:href="#aw"/></g><g id="A"><use transform="matrix(0.05,0,0,0.05,0,0)" xlink:href="#az"/><use transform="matrix(0.05,0,0,0.05,14.950000000000001,0)" xlink:href="#ay"/><use transform="matrix(0.05,0,0,0.05,24.950000000000003,0)" xlink:href="#aw"/><use transform="matrix(0.05,0,0,0.05,29.950000000000003,0)" xlink:href="#ax"/></g><path d="M115-194c55 1 70 41 70 98S169 2 115 4C84 4 66-9 55-30l1 105H24l-1-265h31l2 30c10-21 28-34 59-34zm-8 174c40 0 45-34 45-75s-6-73-45-74c-42 0-51 32-51 76 0 43 10 73 51 73" id="bO"/><path d="M106-169C34-169 62-67 57 0H25v-261h32l-1 103c12-21 28-36 61-36 89 0 53 116 60 194h-32v-121c2-32-8-49-39-48" id="bP"/><g id="B"><use transform="matrix(0.05,0,0,0.05,0,0)" xlink:href="#bO"/><use transform="matrix(0.05,0,0,0.05,10,0)" xlink:href="#ax"/><use transform="matrix(0.05,0,0,0.05,20,0)" xlink:href="#aw"/><use transform="matrix(0.05,0,0,0.05,25,0)" xlink:href="#bP"/></g><path d="M101-234c-31-9-42 10-38 44h38v23H63V0H32v-167H5v-23h27c-7-52 17-82 69-68v24" id="bQ"/><g id="C"><use transform="matrix(0.05,0,0,0.05,0,0)" xlink:href="#bQ"/><use transform="matrix(0.05,0,0,0.05,5,0)" xlink:href="#aO"/><use transform="matrix(0.05,0,0,0.05,8.95,0)" xlink:href="#aA"/><use transform="matrix(0.05,0,0,0.05,18.95,0)" xlink:href="#aP"/><use transform="matrix(0.05,0,0,0.05,28.950000000000003,0)" xlink:href="#ay"/><use transform="matrix(0.05,0,0,0.05,38.95,0)" xlink:href="#bz"/></g><g id="D"><use transform="matrix(0.05,0,0,0.05,0,0)" xlink:href="#aO"/><use transform="matrix(0.05,0,0,0.05,3.95,0)" xlink:href="#aA"/></g><path d="M55-144c13 50 104 24 104 88C159 21 15 23 1-39l26-10c6 40 102 42 102-4-13-50-104-23-104-87 0-71 143-71 148-8l-29 4c-5-35-85-37-89 0" id="bR"/><path d="M198-190L69 30C53 58 25 83-20 72c4-11-1-27 19-22 33-1 43-29 59-52L20-190h32L79-34l84-156h35" id="bS"/><path d="M165-48c-4 18 1 34 23 27l-3 20c-29 8-62 0-52-35h-2C116-14 99 4 63 4 30 4 8-16 8-49c0-68 71-67 138-67 10-26 0-56-31-54-26 1-42 9-47 31l-32-5c8-67 160-71 144 15-5 28-9 54-15 81zM42-50c3 52 80 24 89-6 7-12 7-24 11-38-47 1-103-4-100 44" id="bT"/><path d="M67-158c15-20 31-36 64-36 94 0 33 127 27 194h-32l25-140c3-38-53-32-70-12C52-117 51-51 37 0H6l51-261h31" id="bU"/><g id="E"><use transform="matrix(0.05,0,0,0.05,0,0)" xlink:href="#bR"/><use transform="matrix(0.05,0,0,0.05,9,0)" xlink:href="#bS"/><use transform="matrix(0.05,0,0,0.05,18,0)" xlink:href="#bR"/><use transform="matrix(0.05,0,0,0.05,27,0)" xlink:href="#aE"/><use transform="matrix(0.05,0,0,0.05,32,0)" xlink:href="#aq"/><use transform="matrix(0.05,0,0,0.05,46.95,0)" xlink:href="#aI"/><use transform="matrix(0.05,0,0,0.05,56.95,0)" xlink:href="#au"/><use transform="matrix(0.05,0,0,0.05,61.95,0)" xlink:href="#bT"/><use transform="matrix(0.05,0,0,0.05,71.95,0)" xlink:href="#aF"/><use transform="matrix(0.05,0,0,0.05,81.95,0)" xlink:href="#ar"/><use transform="matrix(0.05,0,0,0.05,91.95,0)" xlink:href="#bT"/><use transform="matrix(0.05,0,0,0.05,101.95,0)" xlink:href="#au"/><use transform="matrix(0.05,0,0,0.05,106.95,0)" xlink:href="#bU"/></g><path fill="#333" d="M137 0h-34L2-248h35l83 218 83-218h36" id="bV"/><path fill="#333" d="M24 0v-261h32V0H24" id="bW"/><path fill="#333" d="M84 4C-5 8 30-112 23-190h32v120c0 31 7 50 39 49 72-2 45-101 50-169h31l1 190h-30c-1-10 1-25-2-33-11 22-28 36-60 37" id="bX"/><g id="F"><use transform="matrix(0.05,0,0,0.05,0,0)" xlink:href="#bV"/><use transform="matrix(0.05,0,0,0.05,10.65,0)" xlink:href="#bh"/><use transform="matrix(0.05,0,0,0.05,20.65,0)" xlink:href="#bW"/><use transform="matrix(0.05,0,0,0.05,24.599999999999998,0)" xlink:href="#bX"/><use transform="matrix(0.05,0,0,0.05,34.599999999999994,0)" xlink:href="#bi"/></g><path fill="#333" d="M24-231v-30h32v30H24zM24 0v-190h32V0H24" id="bY"/><g id="G"><use transform="matrix(0.05,0,0,0.05,0,0)" xlink:href="#bY"/><use transform="matrix(0.05,0,0,0.05,3.95,0)" xlink:href="#bg"/></g><path fill="#333" d="M173 0L80-213 41 0H11l48-248h37l94 214 40-214h30L212 0h-39" id="bZ"/><path fill="#333" d="M67-158c22-48 132-52 116 29L158 0h-32l25-140c3-38-53-32-70-12C52-117 51-52 38 0H6l36-190h30" id="ca"/><g id="H"><use transform="matrix(0.05,0,0,0.05,0,0)" xlink:href="#bZ"/><use transform="matrix(0.05,0,0,0.05,12.950000000000001,0)" xlink:href="#bd"/><use transform="matrix(0.05,0,0,0.05,22.950000000000003,0)" xlink:href="#ca"/><use transform="matrix(0.05,0,0,0.05,32.95,0)" xlink:href="#bL"/><use transform="matrix(0.05,0,0,0.05,42.95,0)" xlink:href="#bl"/></g><path fill="#333" d="M137-103V0h-34v-103L8-248h37l75 118 75-118h37" id="cb"/><g id="I"><use transform="matrix(0.05,0,0,0.05,0,0)" xlink:href="#cb"/><use transform="matrix(0.05,0,0,0.05,10.35,0)" xlink:href="#bi"/><use transform="matrix(0.05,0,0,0.05,20.35,0)" xlink:href="#bg"/></g><path fill="#fff" d="M240 0l2-218c-23 76-54 145-80 218h-23L58-218 59 0H30v-248h44l77 211c21-75 51-140 76-211h43V0h-30" id="cc"/><path fill="#fff" d="M100-194c62-1 85 37 85 99 1 63-27 99-86 99S16-35 15-95c0-66 28-99 85-99zM99-20c44 1 53-31 53-75 0-43-8-75-51-75s-53 32-53 75 10 74 51 75" id="cd"/><path fill="#fff" d="M85-194c31 0 48 13 60 33l-1-100h32l1 261h-30c-2-10 0-23-3-31C134-8 116 4 85 4 32 4 16-35 15-94c0-66 23-100 70-100zm9 24c-40 0-46 34-46 75 0 40 6 74 45 74 42 0 51-32 51-76 0-42-9-74-50-73" id="ce"/><path fill="#fff" d="M84 4C-5 8 30-112 23-190h32v120c0 31 7 50 39 49 72-2 45-101 50-169h31l1 190h-30c-1-10 1-25-2-33-11 22-28 36-60 37" id="cf"/><path fill="#fff" d="M24 0v-261h32V0H24" id="cg"/><path fill="#fff" d="M100-194c63 0 86 42 84 106H49c0 40 14 67 53 68 26 1 43-12 49-29l28 8c-11 28-37 45-77 45C44 4 14-33 15-96c1-61 26-98 85-98zm52 81c6-60-76-77-97-28-3 7-6 17-6 28h103" id="ch"/><path fill="#fff" d="M190 0L58-211 59 0H30v-248h39L202-35l-2-213h31V0h-41" id="ci"/><path fill="#fff" d="M59-47c-2 24 18 29 38 22v24C64 9 27 4 27-40v-127H5v-23h24l9-43h21v43h35v23H59v120" id="cj"/><path fill="#fff" d="M63-220v92h138v28H63V0H30v-248h175v28H63" id="ck"/><path fill="#fff" d="M117-194c89-4 53 116 60 194h-32v-121c0-31-8-49-39-48C34-167 62-67 57 0H25l-1-190h30c1 10-1 24 2 32 11-22 29-35 61-36" id="cl"/><path fill="#fff" d="M30 0v-248h187v28H63v79h144v27H63v87h162V0H30" id="cm"/><path fill="#fff" d="M114-163C36-179 61-72 57 0H25l-1-190h30c1 12-1 29 2 39 6-27 23-49 58-41v29" id="cn"/><g id="J"><use transform="matrix(0.05,0,0,0.05,0,0)" xlink:href="#cc"/><use transform="matrix(0.05,0,0,0.05,14.950000000000001,0)" xlink:href="#cd"/><use transform="matrix(0.05,0,0,0.05,24.950000000000003,0)" xlink:href="#ce"/><use transform="matrix(0.05,0,0,0.05,34.95,0)" xlink:href="#cf"/><use transform="matrix(0.05,0,0,0.05,44.95,0)" xlink:href="#cg"/><use transform="matrix(0.05,0,0,0.05,48.900000000000006,0)" xlink:href="#ch"/><use transform="matrix(0.05,0,0,0.05,58.900000000000006,0)" xlink:href="#ci"/><use transform="matrix(0.05,0,0,0.05,71.85000000000001,0)" xlink:href="#cd"/><use transform="matrix(0.05,0,0,0.05,81.85000000000001,0)" xlink:href="#cj"/><use transform="matrix(0.05,0,0,0.05,86.85000000000001,0)" xlink:href="#ck"/><use transform="matrix(0.05,0,0,0.05,97.80000000000001,0)" xlink:href="#cd"/><use transform="matrix(0.05,0,0,0.05,107.80000000000001,0)" xlink:href="#cf"/><use transform="matrix(0.05,0,0,0.05,117.80000000000001,0)" xlink:href="#cl"/><use transform="matrix(0.05,0,0,0.05,127.80000000000001,0)" xlink:href="#ce"/><use transform="matrix(0.05,0,0,0.05,137.8,0)" xlink:href="#cm"/><use transform="matrix(0.05,0,0,0.05,149.8,0)" xlink:href="#cn"/><use transform="matrix(0.05,0,0,0.05,155.75,0)" xlink:href="#cn"/><use transform="matrix(0.05,0,0,0.05,161.7,0)" xlink:href="#cd"/><use transform="matrix(0.05,0,0,0.05,171.7,0)" xlink:href="#cn"/></g><path fill="#333" d="M76-167L44 0H12l33-167H18l4-23h27c3-47 25-81 82-69l-4 24c-35-8-44 15-46 45h37l-5 23H76" id="co"/><path fill="#333" d="M-28 44V31h207v13H-28" id="cp"/><path fill="#333" d="M44-68c0 29 11 47 38 47 30 0 42-19 51-41l28 9C148-21 126 4 82 4 31 4 10-29 12-85c3-77 74-140 146-93 12 8 15 23 18 40l-31 5c-1-22-13-36-36-36-52 0-65 49-65 101" id="cq"/><path fill="#333" d="M17-49c1-102 45-165 103-212h30C92-210 49-145 49-46 49 4 63 43 85 75H54C30 43 18 2 17-49" id="cr"/><path fill="#333" d="M98-137C97-35 54 29-4 75h-31C23 23 67-41 67-140c0-50-15-89-37-121h31c24 32 36 73 37 124" id="cs"/><g id="K"><use transform="matrix(0.05,0,0,0.05,0,0)" xlink:href="#bH"/><use transform="matrix(0.05,0,0,0.05,5,0)" xlink:href="#co"/><use transform="matrix(0.05,0,0,0.05,10,0)" xlink:href="#ba"/><use transform="matrix(0.05,0,0,0.05,13.949999999999998,0)" xlink:href="#ca"/><use transform="matrix(0.05,0,0,0.05,23.95,0)" xlink:href="#bI"/><use transform="matrix(0.05,0,0,0.05,33.95,0)" xlink:href="#cp"/><use transform="matrix(0.05,0,0,0.05,43.95,0)" xlink:href="#bF"/><use transform="matrix(0.05,0,0,0.05,52.95,0)" xlink:href="#bc"/><use transform="matrix(0.05,0,0,0.05,62.95,0)" xlink:href="#bL"/><use transform="matrix(0.05,0,0,0.05,72.95,0)" xlink:href="#cq"/><use transform="matrix(0.05,0,0,0.05,81.95,0)" xlink:href="#cr"/><use transform="matrix(0.05,0,0,0.05,87.9,0)" xlink:href="#cs"/></g><path fill="#333" d="M114-163C36-179 61-72 57 0H25l-1-190h30c1 12-1 29 2 39 6-27 23-49 58-41v29" id="ct"/><g id="L"><use transform="matrix(0.05,0,0,0.05,0,0)" xlink:href="#ct"/><use transform="matrix(0.05,0,0,0.05,5.95,0)" xlink:href="#bi"/><use transform="matrix(0.05,0,0,0.05,15.949999999999998,0)" xlink:href="#aS"/><use transform="matrix(0.05,0,0,0.05,20.95,0)" xlink:href="#bX"/><use transform="matrix(0.05,0,0,0.05,30.950000000000003,0)" xlink:href="#ct"/><use transform="matrix(0.05,0,0,0.05,36.9,0)" xlink:href="#bk"/><use transform="matrix(0.05,0,0,0.05,46.9,0)" xlink:href="#bg"/></g><path fill="#333" d="M96-169c-40 0-48 33-48 73s9 75 48 75c24 0 41-14 43-38l32 2c-6 37-31 61-74 61-59 0-76-41-82-99-10-93 101-131 147-64 4 7 5 14 7 22l-32 3c-4-21-16-35-41-35" id="cu"/><g id="M"><use transform="matrix(0.05,0,0,0.05,0,0)" xlink:href="#bg"/><use transform="matrix(0.05,0,0,0.05,9,0)" xlink:href="#aU"/><use transform="matrix(0.05,0,0,0.05,19,0)" xlink:href="#bi"/><use transform="matrix(0.05,0,0,0.05,29,0)" xlink:href="#cu"/><use transform="matrix(0.05,0,0,0.05,38,0)" xlink:href="#bl"/></g><g id="N"><use transform="matrix(0.05,0,0,0.05,0,0)" xlink:href="#av"/><use transform="matrix(0.05,0,0,0.05,9,0)" xlink:href="#bO"/><use transform="matrix(0.05,0,0,0.05,19,0)" xlink:href="#ay"/><use transform="matrix(0.05,0,0,0.05,29,0)" xlink:href="#aL"/><use transform="matrix(0.05,0,0,0.05,38,0)" xlink:href="#aE"/><use transform="matrix(0.05,0,0,0.05,43,0)" xlink:href="#aC"/><use transform="matrix(0.05,0,0,0.05,46.95,0)" xlink:href="#as"/><use transform="matrix(0.05,0,0,0.05,56.95,0)" xlink:href="#bT"/><use transform="matrix(0.05,0,0,0.05,66.95,0)" xlink:href="#aG"/><use transform="matrix(0.05,0,0,0.05,76.95,0)" xlink:href="#aI"/><use transform="matrix(0.05,0,0,0.05,86.95,0)" xlink:href="#at"/></g><path d="M124 0L87-78 21 0h-35l86-98-46-92h33l34 74 61-74h37l-83 92 50 98h-34" id="cv"/><path d="M44-68c0 29 11 47 38 47 30 0 42-19 51-41l28 9C148-21 126 4 82 4 31 4 10-29 12-85c3-77 74-140 146-93 12 8 15 23 18 40l-31 5c-1-22-13-36-36-36-52 0-65 49-65 101" id="cw"/><g id="O"><use transform="matrix(0.05,0,0,0.05,0,0)" xlink:href="#aE"/><use transform="matrix(0.05,0,0,0.05,5,0)" xlink:href="#aI"/><use transform="matrix(0.05,0,0,0.05,15,0)" xlink:href="#cv"/><use transform="matrix(0.05,0,0,0.05,24,0)" xlink:href="#aI"/><use transform="matrix(0.05,0,0,0.05,34,0)" xlink:href="#cw"/><use transform="matrix(0.05,0,0,0.05,43,0)" xlink:href="#aF"/><use transform="matrix(0.05,0,0,0.05,53,0)" xlink:href="#aq"/><use transform="matrix(0.05,0,0,0.05,67.95,0)" xlink:href="#as"/><use transform="matrix(0.05,0,0,0.05,77.95,0)" xlink:href="#aG"/><use transform="matrix(0.05,0,0,0.05,87.95,0)" xlink:href="#aH"/><use transform="matrix(0.05,0,0,0.05,97.95,0)" xlink:href="#aC"/><use transform="matrix(0.05,0,0,0.05,101.9,0)" xlink:href="#aI"/><use transform="matrix(0.05,0,0,0.05,111.9,0)" xlink:href="#aJ"/><use transform="matrix(0.05,0,0,0.05,117.85000000000001,0)" xlink:href="#aq"/><use transform="matrix(0.05,0,0,0.05,132.8,0)" xlink:href="#as"/><use transform="matrix(0.05,0,0,0.05,142.8,0)" xlink:href="#aG"/><use transform="matrix(0.05,0,0,0.05,152.8,0)" xlink:href="#aH"/><use transform="matrix(0.05,0,0,0.05,162.8,0)" xlink:href="#aC"/><use transform="matrix(0.05,0,0,0.05,166.75,0)" xlink:href="#aI"/><use transform="matrix(0.05,0,0,0.05,176.75,0)" xlink:href="#aK"/></g><path fill="#333" d="M30 0v-248h187v28H63v79h144v27H63v87h162V0H30" id="cx"/><path fill="#333" d="M85-194c31 0 48 13 60 33l-1-100h32l1 261h-30c-2-10 0-23-3-31C134-8 116 4 85 4 32 4 16-35 15-94c0-66 23-100 70-100zm9 24c-40 0-46 34-46 75 0 40 6 74 45 74 42 0 51-32 51-76 0-42-9-74-50-73" id="cy"/><g id="P"><use transform="matrix(0.05,0,0,0.05,0,0)" xlink:href="#cx"/><use transform="matrix(0.05,0,0,0.05,12,0)" xlink:href="#bk"/><use transform="matrix(0.05,0,0,0.05,22,0)" xlink:href="#cy"/></g><path fill="#333" d="M101-234c-31-9-42 10-38 44h38v23H63V0H32v-167H5v-23h27c-7-52 17-82 69-68v24" id="cz"/><g id="Q"><use transform="matrix(0.05,0,0,0.05,0,0)" xlink:href="#aT"/><use transform="matrix(0.05,0,0,0.05,10,0)" xlink:href="#cz"/></g><path fill="#333" d="M165-48c-4 18 1 34 23 27l-3 20c-29 8-62 0-52-35h-2C116-14 99 4 63 4 30 4 8-16 8-49c0-68 71-67 138-67 10-26 0-56-31-54-26 1-42 9-47 31l-32-5c8-67 160-71 144 15-5 28-9 54-15 81zM42-50c3 52 80 24 89-6 7-12 7-24 11-38-47 1-103-4-100 44" id="cA"/><path fill="#333" d="M67-158c15-20 31-36 64-36 94 0 33 127 27 194h-32l25-140c3-38-53-32-70-12C52-117 51-51 37 0H6l51-261h31" id="cB"/><g id="R"><use transform="matrix(0.05,0,0,0.05,0,0)" xlink:href="#bF"/><use transform="matrix(0.05,0,0,0.05,9,0)" xlink:href="#bG"/><use transform="matrix(0.05,0,0,0.05,18,0)" xlink:href="#bF"/><use transform="matrix(0.05,0,0,0.05,27,0)" xlink:href="#bH"/><use transform="matrix(0.05,0,0,0.05,32,0)" xlink:href="#bb"/><use transform="matrix(0.05,0,0,0.05,46.95,0)" xlink:href="#bL"/><use transform="matrix(0.05,0,0,0.05,56.95,0)" xlink:href="#bf"/><use transform="matrix(0.05,0,0,0.05,61.95,0)" xlink:href="#cA"/><use transform="matrix(0.05,0,0,0.05,71.95,0)" xlink:href="#cp"/><use transform="matrix(0.05,0,0,0.05,81.95,0)" xlink:href="#bc"/><use transform="matrix(0.05,0,0,0.05,91.95,0)" xlink:href="#cA"/><use transform="matrix(0.05,0,0,0.05,101.95,0)" xlink:href="#bf"/><use transform="matrix(0.05,0,0,0.05,106.95,0)" xlink:href="#cB"/></g><g id="S"><use transform="matrix(0.05,0,0,0.05,0,0)" xlink:href="#bR"/><use transform="matrix(0.05,0,0,0.05,9,0)" xlink:href="#ar"/><use transform="matrix(0.05,0,0,0.05,19,0)" xlink:href="#aI"/><use transform="matrix(0.05,0,0,0.05,29,0)" xlink:href="#cw"/></g><g id="T"><use transform="matrix(0.05,0,0,0.05,0,0)" xlink:href="#aE"/><use transform="matrix(0.05,0,0,0.05,5,0)" xlink:href="#aC"/><use transform="matrix(0.05,0,0,0.05,8.95,0)" xlink:href="#as"/><use transform="matrix(0.05,0,0,0.05,18.95,0)" xlink:href="#bT"/><use transform="matrix(0.05,0,0,0.05,28.950000000000003,0)" xlink:href="#aG"/><use transform="matrix(0.05,0,0,0.05,38.95,0)" xlink:href="#aI"/><use transform="matrix(0.05,0,0,0.05,48.95,0)" xlink:href="#at"/><use transform="matrix(0.05,0,0,0.05,54.25,0)" xlink:href="#aE"/><use transform="matrix(0.05,0,0,0.05,59.25,0)" xlink:href="#cw"/><use transform="matrix(0.05,0,0,0.05,68.25,0)" xlink:href="#at"/><use transform="matrix(0.05,0,0,0.05,74.2,0)" xlink:href="#aI"/><use transform="matrix(0.05,0,0,0.05,84.2,0)" xlink:href="#bT"/><use transform="matrix(0.05,0,0,0.05,94.2,0)" xlink:href="#au"/><use transform="matrix(0.05,0,0,0.05,99.2,0)" xlink:href="#aI"/><use transform="matrix(0.05,0,0,0.05,109.2,0)" xlink:href="#aF"/><use transform="matrix(0.05,0,0,0.05,119.2,0)" xlink:href="#aq"/><use transform="matrix(0.05,0,0,0.05,134.15,0)" xlink:href="#as"/><use transform="matrix(0.05,0,0,0.05,144.15,0)" xlink:href="#aG"/><use transform="matrix(0.05,0,0,0.05,154.15,0)" xlink:href="#aH"/><use transform="matrix(0.05,0,0,0.05,164.15,0)" xlink:href="#aC"/><use transform="matrix(0.05,0,0,0.05,168.1,0)" xlink:href="#aI"/><use transform="matrix(0.05,0,0,0.05,178.1,0)" xlink:href="#aJ"/><use transform="matrix(0.05,0,0,0.05,184.04999999999998,0)" xlink:href="#bR"/><use transform="matrix(0.05,0,0,0.05,193.04999999999998,0)" xlink:href="#ar"/><use transform="matrix(0.05,0,0,0.05,203.04999999999998,0)" xlink:href="#aI"/><use transform="matrix(0.05,0,0,0.05,213.04999999999995,0)" xlink:href="#cw"/><use transform="matrix(0.05,0,0,0.05,222.04999999999995,0)" xlink:href="#aK"/></g><g id="U"><use transform="matrix(0.05,0,0,0.05,0,0)" xlink:href="#bg"/><use transform="matrix(0.05,0,0,0.05,9,0)" xlink:href="#aU"/><use transform="matrix(0.05,0,0,0.05,19,0)" xlink:href="#bi"/><use transform="matrix(0.05,0,0,0.05,29,0)" xlink:href="#cu"/><use transform="matrix(0.05,0,0,0.05,38,0)" xlink:href="#bH"/><use transform="matrix(0.05,0,0,0.05,43,0)" xlink:href="#bK"/><use transform="matrix(0.05,0,0,0.05,46.95,0)" xlink:href="#bd"/><use transform="matrix(0.05,0,0,0.05,56.95,0)" xlink:href="#cA"/><use transform="matrix(0.05,0,0,0.05,66.95,0)" xlink:href="#bI"/><use transform="matrix(0.05,0,0,0.05,76.95,0)" xlink:href="#bL"/><use transform="matrix(0.05,0,0,0.05,86.95,0)" xlink:href="#be"/></g><g id="V"><use transform="matrix(0.05,0,0,0.05,0,0)" xlink:href="#bY"/><use transform="matrix(0.05,0,0,0.05,3.95,0)" xlink:href="#bg"/></g><g id="W"><use transform="matrix(0.05,0,0,0.05,0,0)" xlink:href="#bZ"/><use transform="matrix(0.05,0,0,0.05,12.950000000000001,0)" xlink:href="#bd"/><use transform="matrix(0.05,0,0,0.05,22.950000000000003,0)" xlink:href="#ca"/><use transform="matrix(0.05,0,0,0.05,32.95,0)" xlink:href="#bL"/><use transform="matrix(0.05,0,0,0.05,42.95,0)" xlink:href="#bl"/></g><path fill="#fff" d="M33 0v-248h34V0H33" id="cC"/><path fill="#fff" d="M210-169c-67 3-38 105-44 169h-31v-121c0-29-5-50-35-48C34-165 62-65 56 0H25l-1-190h30c1 10-1 24 2 32 10-44 99-50 107 0 11-21 27-35 58-36 85-2 47 119 55 194h-31v-121c0-29-5-49-35-48" id="cD"/><path fill="#fff" d="M115-194c55 1 70 41 70 98S169 2 115 4C84 4 66-9 55-30l1 105H24l-1-265h31l2 30c10-21 28-34 59-34zm-8 174c40 0 45-34 45-75s-6-73-45-74c-42 0-51 32-51 76 0 43 10 73 51 73" id="cE"/><g id="X"><use transform="matrix(0.05,0,0,0.05,0,0)" xlink:href="#cC"/><use transform="matrix(0.05,0,0,0.05,5,0)" xlink:href="#cD"/><use transform="matrix(0.05,0,0,0.05,19.950000000000003,0)" xlink:href="#cE"/><use transform="matrix(0.05,0,0,0.05,29.950000000000003,0)" xlink:href="#cd"/><use transform="matrix(0.05,0,0,0.05,39.95,0)" xlink:href="#cn"/><use transform="matrix(0.05,0,0,0.05,45.900000000000006,0)" xlink:href="#cj"/><use transform="matrix(0.05,0,0,0.05,50.900000000000006,0)" xlink:href="#cm"/><use transform="matrix(0.05,0,0,0.05,62.900000000000006,0)" xlink:href="#cn"/><use transform="matrix(0.05,0,0,0.05,68.85000000000001,0)" xlink:href="#cn"/><use transform="matrix(0.05,0,0,0.05,74.80000000000001,0)" xlink:href="#cd"/><use transform="matrix(0.05,0,0,0.05,84.80000000000001,0)" xlink:href="#cn"/></g></defs></g></svg>